# xmcd
#
# Track frame offsets: 
#        150
#        16300
#        29356
#        42182
#        58264
#        77385
#        94313
#        107818
#        140509
#        155079
#        175293
#        194439
#
# Disc length: 2757 seconds
#
# Revision: 0
# Processed by: cddbd v1.5.2PL0 Copyright (c) Steve Scherf et al.
# Submitted via: ExactAudioCopyFreeDBPlugin 1.0
#
DISCID=a00ac30c
DTITLE=Restavrant - Yeah, I Carve Cheetahs
DYEAR=2011
DGENRE=Bluegrass
TTITLE0=Six Years
TTITLE1=Yes, I Guess
TTITLE2=Fight Myself
TTITLE3=Wild Witch
TTITLE4=Bev D
TTITLE5=Yeah, I Carve Cheetahs
TTITLE6=Oakley Shades
TTITLE7=Watch Me Drive
TTITLE8=Lie O' My Life
TTITLE9=Hey Dolly
TTITLE10=Bad Moon
TTITLE11=I See It Now
EXTD=
EXTT0=
EXTT1=
EXTT2=
EXTT3=
EXTT4=
EXTT5=
EXTT6=
EXTT7=
EXTT8=
EXTT9=
EXTT10=
EXTT11=
PLAYORDER=
